# xmcd CD database file
#
# Track frame offsets:
#	150
#	20648
#	38373
#	57059
#	74288
#	93733
#	109879
#	126966
#	142044
#	156828
#	172809
#	189852
#
# Disc length: 2828 seconds
#
# Revision: 0
# Processed by: cddbd v1.5.2PL0 Copyright (c) Steve Scherf et al.
# Submitted via: cdripper 1,0,33,916
#
DISCID=9d0b0a0c
DTITLE=Buck McCoy - Top Dog
DYEAR=2007
DGENRE=Country
TTITLE0=A Few Steps Away
TTITLE1=What Might Have Been
TTITLE2=Got It All With You
TTITLE3=18 Years
TTITLE4=Top Dog
TTITLE5=Starting Then
TTITLE6=My Moment With Sheryl Crow
TTITLE7=Heart Like Mine
TTITLE8=Wine,Women and A Song
TTITLE9=Poundmill Run
TTITLE10=Country Rock Boogie
TTITLE11=We Belong Together
EXTD=YEAR: 2007
EXTT0=
EXTT1=
EXTT2=
EXTT3=
EXTT4=
EXTT5=
EXTT6=
EXTT7=
EXTT8=
EXTT9=
EXTT10=
EXTT11=
PLAYORDER=
